<svg width="143" height="157" viewBox="0 0 143 157" fill="none" xmlns="http://www.w3.org/2000/svg">
<path d="M128.625 82.5145C128.625 117.153 103.049 145.232 71.5 145.232C39.9506 145.232 14.375 117.153 14.375 82.5145" stroke="#00A467" stroke-width="5"/>
<path fill-rule="evenodd" clip-rule="evenodd" d="M71.2318 11.8476C71.2318 11.8476 108.242 58.7718 108.242 82.5145C108.242 106.257 91.7924 125.503 71.5 125.503C51.2076 125.503 34.7576 106.257 34.7576 82.5145C34.7576 58.7722 71.2318 11.8476 71.2318 11.8476Z" stroke="#44B900" stroke-width="5"/>
<path fill-rule="evenodd" clip-rule="evenodd" d="M71.5 45.5124C71.5 45.5124 90.3016 70.3649 90.3016 82.5145C90.3016 94.6641 81.884 104.513 71.5 104.513C61.1161 104.513 52.6984 94.6639 52.6984 82.5145C52.6984 70.365 71.5 45.5124 71.5 45.5124Z" stroke="#D0DC00" stroke-width="5"/>
</svg>
