<svg width="226" height="170" viewBox="0 0 226 170" fill="none" xmlns="http://www.w3.org/2000/svg">
<path d="M226 148.786H0V148.899H226V148.786Z" fill="#EBEBEB"/>
<path d="M107.124 128.627H19.8473C19.1636 128.626 18.5083 128.353 18.0252 127.87C17.5422 127.386 17.2709 126.73 17.2709 126.046V3.35977C17.2769 2.67998 17.5508 2.02998 18.0332 1.55097C18.5156 1.07196 19.1675 0.802617 19.8473 0.801453H107.124C107.808 0.801453 108.465 1.07337 108.949 1.55739C109.433 2.0414 109.705 2.69787 109.705 3.38237V126.046C109.705 126.731 109.433 127.387 108.949 127.871C108.465 128.355 107.808 128.627 107.124 128.627ZM19.8473 0.891853C19.1936 0.89305 18.567 1.15359 18.1051 1.61629C17.6433 2.07898 17.3839 2.70602 17.3839 3.35977V126.046C17.3839 126.7 17.6433 127.327 18.1051 127.79C18.567 128.252 19.1936 128.513 19.8473 128.514H107.124C107.778 128.513 108.405 128.252 108.868 127.79C109.33 127.327 109.591 126.7 109.592 126.046V3.35977C109.591 2.70561 109.33 2.07858 108.868 1.61601C108.405 1.15344 107.778 0.893048 107.124 0.891853H19.8473Z" fill="#EBEBEB"/>
<path d="M204.896 128.627H117.615C116.931 128.626 116.275 128.354 115.791 127.87C115.307 127.386 115.035 126.73 115.034 126.046V3.35977C115.041 2.67956 115.316 2.02957 115.799 1.55068C116.282 1.0718 116.935 0.802604 117.615 0.801453H204.896C205.575 0.803805 206.226 1.07367 206.707 1.55255C207.189 2.03144 207.462 2.68076 207.468 3.35977V126.046C207.468 126.729 207.197 127.384 206.715 127.868C206.233 128.352 205.579 128.625 204.896 128.627ZM117.615 0.891853C116.961 0.893048 116.334 1.15344 115.871 1.61601C115.409 2.07858 115.148 2.70561 115.147 3.35977V126.046C115.148 126.7 115.409 127.327 115.871 127.79C116.334 128.252 116.961 128.513 117.615 128.514H204.896C205.55 128.513 206.177 128.252 206.64 127.79C207.102 127.327 207.363 126.7 207.364 126.046V3.35977C207.363 2.70561 207.102 2.07858 206.64 1.61601C206.177 1.15344 205.55 0.893048 204.896 0.891853H117.615Z" fill="#EBEBEB"/>
<path d="M34.9306 153.089H23.1786V153.202H34.9306V153.089Z" fill="#EBEBEB"/>
<path d="M85.9613 151.864H65.6078V151.977H85.9613V151.864Z" fill="#EBEBEB"/>
<path d="M62.8597 157.288H35.3826V157.401H62.8597V157.288Z" fill="#EBEBEB"/>
<path d="M202.821 156.529H194.129V156.642H202.821V156.529Z" fill="#EBEBEB"/>
<path d="M190.102 156.529H165.111V156.642H190.102V156.529Z" fill="#EBEBEB"/>
<path d="M149.847 154.622H116.187V154.735H149.847V154.622Z" fill="#EBEBEB"/>
<path d="M197.958 90.2115H181.826V148.786H197.958V90.2115Z" fill="#E6E6E6"/>
<path d="M181.826 90.2115H122.207V148.786H181.826V90.2115Z" fill="#F5F5F5"/>
<path d="M178.707 148.786V93.3349H125.335V148.786H178.707Z" fill="#E6E6E6"/>
<path d="M178.703 93.3304H147.465V148.782H178.703V93.3304Z" fill="#E0E0E0"/>
<path d="M179.742 111.252V92.3721H123.64V111.252H179.742Z" fill="#F5F5F5"/>
<path d="M175.507 109.241H127.871V94.3654H175.507V109.241ZM128.82 108.301H174.571V95.3192H128.82V108.301Z" fill="white"/>
<path d="M168.754 75.1328H154.051V90.1754H168.754V75.1328Z" fill="#E6E6E6"/>
<path d="M134.728 90.1754H154.051V75.1329H134.728V90.1754Z" fill="#F0F0F0"/>
<g style="mix-blend-mode:multiply" opacity="0.7">
<path d="M168.754 73.2797H134.728V75.5351H168.754V73.2797Z" fill="#E6E6E6"/>
</g>
<path d="M169.495 73.0491H154.051V75.1374H169.495V73.0491Z" fill="#E6E6E6"/>
<path d="M133.982 75.1328H154.046V73.0446H133.982V75.1328Z" fill="#F0F0F0"/>
<path d="M186.387 83.4768H174.359V90.1754H186.387V83.4768Z" fill="#EBEBEB"/>
<path d="M158.553 90.1709H174.359V83.4723H158.553V90.1709Z" fill="#F5F5F5"/>
<g style="mix-blend-mode:multiply" opacity="0.7">
<path d="M186.382 81.958H158.548V83.8067H186.382V81.958Z" fill="#E6E6E6"/>
</g>
<path d="M186.992 81.7682H174.359V83.4768H186.992V81.7682Z" fill="#EBEBEB"/>
<path d="M157.942 83.4722H174.359V81.7637H157.942V83.4722Z" fill="#F5F5F5"/>
<path d="M138.61 71.4038H185.08V9.742L138.61 9.742V71.4038Z" fill="#E6E6E6"/>
<path d="M135.08 71.4038H183.535V9.742L135.08 9.742V71.4038Z" fill="#F5F5F5"/>
<path d="M178.133 67.7969H140.491C140.011 67.7969 139.551 67.6064 139.212 67.2673C138.873 66.9283 138.683 66.4684 138.683 65.9889V15.1479C138.683 14.6684 138.873 14.2086 139.212 13.8695C139.551 13.5304 140.011 13.3399 140.491 13.3399H178.133C178.613 13.3399 179.073 13.5304 179.412 13.8695C179.751 14.2086 179.941 14.6684 179.941 15.1479V65.9934C179.94 66.4721 179.749 66.9309 179.41 67.2689C179.071 67.607 178.612 67.7969 178.133 67.7969ZM140.491 14.253C140.251 14.253 140.021 14.3482 139.851 14.5178C139.682 14.6873 139.587 14.9172 139.587 15.157V65.9934C139.587 66.2332 139.682 66.4631 139.851 66.6326C140.021 66.8022 140.251 66.8974 140.491 66.8974H178.133C178.373 66.8974 178.603 66.8022 178.772 66.6326C178.942 66.4631 179.037 66.2332 179.037 65.9934V15.1479C179.037 14.9082 178.942 14.6782 178.772 14.5087C178.603 14.3392 178.373 14.2439 178.133 14.2439L140.491 14.253Z" fill="white"/>
<path d="M29.5743 140.763H95.1821L95.1821 11.2833H29.5743L29.5743 140.763Z" fill="#E6E6E6"/>
<path d="M28.1234 140.763H94.5042L94.5042 11.2833H28.1234L28.1234 140.763Z" fill="#F5F5F5"/>
<path d="M100.245 10.1714H24.512C24.3629 10.1667 24.2215 10.1042 24.1177 9.99702C24.0139 9.88987 23.9559 9.74653 23.956 9.59737C23.956 9.44512 24.0165 9.29912 24.1241 9.19146C24.2318 9.08381 24.3778 9.02333 24.53 9.02333H100.245C100.397 9.02333 100.543 9.08381 100.65 9.19146C100.758 9.29912 100.819 9.44512 100.819 9.59737C100.819 9.67275 100.804 9.7474 100.775 9.81704C100.746 9.88669 100.704 9.94997 100.65 10.0033C100.597 10.0566 100.534 10.0989 100.464 10.1277C100.395 10.1566 100.32 10.1714 100.245 10.1714Z" fill="#E6E6E6"/>
<path d="M29.5743 142.951H95.1821V140.763H29.5743V142.951Z" fill="#E6E6E6"/>
<path d="M25.4386 142.951H88.6372V140.763H25.4386V142.951Z" fill="#F5F5F5"/>
<path d="M92.4656 138.124L92.4656 13.9321L30.1574 13.9321L30.1574 138.124H92.4656Z" fill="#FAFAFA"/>
<path d="M70.8239 138.119L66.0191 13.9321H57.3769L62.1817 138.119H70.8239Z" fill="white"/>
<path d="M59.7363 138.119L54.9315 13.9321H50.9178L55.7225 138.119H59.7363Z" fill="white"/>
<path d="M30.4151 65.0216L30.4151 13.575H30.1574L30.1574 65.0216H30.4151Z" fill="#E6E6E6"/>
<path opacity="0.4" d="M34.6865 7.27409H25.2623V133.436H34.6865V7.27409Z" fill="#E0E0E0"/>
<path opacity="0.4" d="M45.191 7.27409H35.7668V133.436H45.191V7.27409Z" fill="#E0E0E0"/>
<path opacity="0.4" d="M38.9805 8.40408H29.5563V134.566H38.9805V8.40408Z" fill="#E0E0E0"/>
<path opacity="0.4" d="M87.5524 7.27409H78.1282V133.436H87.5524V7.27409Z" fill="#E0E0E0"/>
<path opacity="0.4" d="M98.0614 7.27409H88.6372V133.436H98.0614V7.27409Z" fill="#E0E0E0"/>
<path opacity="0.4" d="M91.8464 8.40408H82.4222V134.566H91.8464V8.40408Z" fill="#E0E0E0"/>
<path d="M113 169.199C161.401 169.199 200.638 166.908 200.638 164.082C200.638 161.256 161.401 158.965 113 158.965C64.5987 158.965 25.3617 161.256 25.3617 164.082C25.3617 166.908 64.5987 169.199 113 169.199Z" fill="#F5F5F5"/>
<path d="M164.528 22.4974C160.88 20.8883 156.659 19.9798 154.543 23.4376C153.156 25.6976 152.464 30.317 150.023 32.803C149.817 32.9864 149.652 33.2103 149.537 33.4608C149.421 33.7113 149.359 33.9829 149.354 34.2585C149.352 34.2931 149.352 34.3278 149.354 34.3624C149.395 35.7546 150.512 37.6168 153.382 38.3039C152.809 37.9327 152.319 37.4463 151.944 36.8756C153.126 37.3864 154.399 37.6539 155.687 37.662C159.068 37.6259 161.667 37.8835 163.217 38.6881C164.768 39.4926 167.588 35.9761 167.462 34.376C168.072 35.28 168.818 34.376 169.057 32.1522C169.712 26.4344 167.855 21.7471 164.528 22.4974Z" fill="#006800"/>
<path d="M156.225 40.3695C155.64 40.3686 155.069 40.1945 154.584 39.8691C154.098 39.5438 153.72 39.0818 153.497 38.5416C153.274 38.0013 153.216 37.4071 153.331 36.834C153.445 36.2608 153.727 35.7345 154.141 35.3216C154.554 34.9086 155.081 34.6275 155.654 34.5138C156.228 34.4001 156.822 34.4589 157.362 34.6828C157.901 34.9067 158.363 35.2856 158.687 35.7716C159.012 36.2576 159.185 36.829 159.185 37.4134C159.184 38.1979 158.872 38.9497 158.317 39.504C157.762 40.0582 157.009 40.3695 156.225 40.3695ZM156.225 34.6743C155.683 34.6743 155.153 34.835 154.703 35.1359C154.253 35.4369 153.901 35.8647 153.694 36.3652C153.487 36.8657 153.433 37.4165 153.538 37.9478C153.644 38.4792 153.905 38.9672 154.288 39.3503C154.671 39.7334 155.159 39.9942 155.69 40.0999C156.222 40.2056 156.772 40.1514 157.273 39.9441C157.773 39.7367 158.201 39.3857 158.502 38.9352C158.803 38.4848 158.964 37.9552 158.964 37.4134C158.964 36.687 158.675 35.9903 158.162 35.4766C157.648 34.9629 156.951 34.6743 156.225 34.6743Z" fill="#5FC537"/>
<path d="M153.169 50.648C152.044 52.8606 150.785 55.0025 149.4 57.0619C148.7 58.1192 147.946 59.1391 147.14 60.1174C146.288 61.2004 145.304 62.1722 144.211 63.0102C144.002 63.1677 143.78 63.3054 143.546 63.4215C143.26 63.5647 142.956 63.6695 142.642 63.7334C142.026 63.8488 141.391 63.8021 140.798 63.5978C139.964 63.2816 139.218 62.7719 138.619 62.1107C138.137 61.5986 137.703 61.0433 137.322 60.4519C136.956 59.8914 136.631 59.3309 136.332 58.7659C135.193 56.5398 134.284 54.2028 133.62 51.7916L135.595 51.0503C136.639 53.1389 137.808 55.163 139.094 57.1116C139.672 57.9998 140.353 58.8162 141.123 59.5434C141.348 59.7715 141.624 59.9421 141.928 60.0406C141.982 60.0406 141.928 60.0089 141.865 60.018C141.801 60.027 141.81 60.018 141.806 60.018C141.801 60.018 141.779 60.018 141.892 59.9366C142.656 59.2363 143.342 58.4559 143.939 57.6088C144.604 56.7048 145.241 55.742 145.865 54.7657C146.489 53.7894 147.076 52.7679 147.673 51.7554C148.27 50.7429 148.835 49.6943 149.381 48.6954L153.169 50.648Z" fill="#B55B52"/>
<path d="M151.917 44.7042C150.145 44.6409 147.008 51.0955 147.008 51.0955L150.385 58.6574C150.385 58.6574 157.007 49.9429 156.261 47.7597C155.488 45.4771 154.503 44.7946 151.917 44.7042Z" fill="#5FC537"/>
<path opacity="0.6" d="M151.917 44.7042C150.145 44.6409 147.008 51.0955 147.008 51.0955L150.385 58.6574C150.385 58.6574 157.007 49.9429 156.261 47.7597C155.488 45.4771 154.503 44.7946 151.917 44.7042Z" fill="white"/>
<path d="M135.311 48.0174L135.835 52.6865L134.606 53.5453C132.92 53.1566 132.215 50.5712 132.215 50.5712L131.455 48.9123C131.292 48.5544 131.243 48.1552 131.313 47.7682C131.383 47.3813 131.57 47.0251 131.848 46.7472L132.192 46.4082C132.35 46.2473 132.541 46.1231 132.753 46.0445C132.964 45.9659 133.19 45.9347 133.415 45.9533C133.64 45.9718 133.858 46.0396 134.053 46.1518C134.249 46.2641 134.417 46.418 134.547 46.6026L135.04 47.3077C135.188 47.5177 135.281 47.7618 135.311 48.0174Z" fill="#B55B52"/>
<path d="M160.487 160.565H156.32L155.94 150.911H160.112L160.487 160.565Z" fill="#B55B52"/>
<path d="M155.94 160.082H160.627C160.705 160.08 160.78 160.109 160.836 160.163C160.893 160.216 160.927 160.289 160.93 160.366L161.088 164.073C161.086 164.269 161.007 164.456 160.869 164.594C160.73 164.733 160.543 164.812 160.347 164.814C158.715 164.787 157.938 164.692 155.877 164.692C154.611 164.692 151.696 164.823 149.946 164.823C148.197 164.823 148.274 163.092 149.02 162.934C152.36 162.233 154.024 161.266 155.217 160.339C155.423 160.176 155.677 160.086 155.94 160.082Z" fill="#006800"/>
<g opacity="0.2">
<path opacity="0.2" d="M155.94 150.915L156.134 155.892H160.306L160.112 150.915H155.94Z" fill="black"/>
</g>
<path d="M150.245 46.7698C150.154 49.405 150.611 55.5612 153.382 69.8987L170.309 69.3924C169.857 62.9921 169.703 58.8699 172 46.8512C172.071 46.4807 172.066 46.0995 171.983 45.7313C171.901 45.3631 171.743 45.0158 171.521 44.7113C171.298 44.4067 171.015 44.1513 170.689 43.9611C170.363 43.7709 170.001 43.65 169.627 43.6058C168.384 43.4612 166.869 43.3256 165.342 43.2985C162.778 43.1916 160.21 43.2686 157.658 43.529C155.7 43.764 153.59 44.1708 152.202 44.4646C151.664 44.5738 151.179 44.8604 150.824 45.2784C150.469 45.6965 150.265 46.2218 150.245 46.7698Z" fill="#5FC537"/>
<path opacity="0.7" d="M150.245 46.7698C150.154 49.405 150.611 55.5612 153.382 69.8987L170.309 69.3924C169.857 62.9921 169.703 58.8699 172 46.8512C172.071 46.4807 172.066 46.0995 171.983 45.7313C171.901 45.3631 171.743 45.0158 171.521 44.7113C171.298 44.4067 171.015 44.1513 170.689 43.9611C170.363 43.7709 170.001 43.65 169.627 43.6058C168.384 43.4612 166.869 43.3256 165.342 43.2985C162.778 43.1916 160.21 43.2686 157.658 43.529C155.7 43.764 153.59 44.1708 152.202 44.4646C151.664 44.5738 151.179 44.8604 150.824 45.2784C150.469 45.6965 150.265 46.2218 150.245 46.7698Z" fill="white"/>
<path d="M164.32 34.6653C163.909 37.1558 163.561 41.6984 165.342 43.2985C164.004 45.4076 161.895 46.911 159.466 47.4885C155.565 45.5088 157.658 43.529 157.658 43.529C160.397 42.7877 160.266 40.7447 159.728 38.8372L164.32 34.6653Z" fill="#B55B52"/>
<path d="M159.47 47.4885L159.976 46.4986L162.684 47.1134L159.47 47.4885Z" fill="#5FC537"/>
<path d="M159.976 46.4986C160.844 46.1009 164.872 43.4793 165.03 42.6612C165.814 42.7702 166.582 42.9735 167.317 43.2668C167.317 43.2668 166.594 46.4986 162.684 48.6908C162.411 48.156 162.03 47.6845 161.563 47.3068C161.097 46.9292 160.556 46.6538 159.976 46.4986Z" fill="white"/>
<path d="M159.47 47.4885L159.244 46.4986L157.581 46.6162L159.47 47.4885Z" fill="#5FC537"/>
<path d="M159.244 46.4986C157.888 45.5946 158.394 43.7414 158.525 42.9233C157.847 42.9921 157.182 43.1565 156.55 43.4115C156.55 43.4115 154.512 45.2828 156.487 48.7089C157.177 47.7253 158.134 46.9586 159.244 46.4986Z" fill="white"/>
<path opacity="0.2" d="M162.449 36.3693L159.737 38.8327C159.871 39.2754 159.965 39.7292 160.017 40.1887C161.066 40.0079 162.48 38.8056 162.557 37.7027C162.602 37.2553 162.565 36.8037 162.449 36.3693Z" fill="black"/>
<path d="M165.635 29.3859C165.455 33.5172 165.464 35.2619 163.416 37.427C160.333 40.6678 155.28 39.5424 154.236 35.4382C153.287 31.7409 153.748 25.6027 157.762 23.8896C158.645 23.5084 159.611 23.3593 160.568 23.4562C161.525 23.5532 162.441 23.8931 163.23 24.4438C164.019 24.9944 164.654 25.7374 165.075 26.6023C165.496 27.4673 165.689 28.4255 165.635 29.3859Z" fill="#B55B52"/>
<path d="M162.684 25.0151C161.296 27.3429 159.321 24.3823 157.748 26.1541C156.487 27.5734 154.421 26.0818 153.228 30.1317C153.644 26.6513 154.227 23.5732 157.784 22.5517C159.976 21.9189 164.171 21.6793 162.684 25.0151Z" fill="#006800"/>
<path d="M163.393 23.4014C162.178 24.2467 160.93 25.4626 161.079 26.9496C161.228 28.4367 163.362 27.7858 163.647 28.83C163.931 29.8741 162.372 32.0708 164.636 32.2878C167.222 30.8459 167.945 30.5295 167.475 28.3147C167.005 26.0999 165.369 23.1076 163.393 23.4014Z" fill="#006800"/>
<path d="M153.346 69.8987C153.346 69.8987 151.709 100.693 151.623 113.349C151.538 126.521 155.239 154.933 155.239 154.933H160.876C160.876 154.933 159.805 126.222 160.672 113.232C161.617 99.0708 164.912 69.5326 164.912 69.5326L153.346 69.8987Z" fill="#5FC537"/>
<path d="M161.35 155.128H154.733L154.462 153.017L161.897 152.759L161.35 155.128Z" fill="#006800"/>
<path opacity="0.2" d="M163.723 80.5885C163.118 79.8291 162.318 80.2269 161.274 82.3965C157.712 89.7867 159.52 101.57 161.043 108.359C161.73 99.8979 162.86 88.7651 163.723 80.5885Z" fill="black"/>
<path d="M158.652 30.9679C158.652 31.3024 158.485 31.5781 158.263 31.5826C158.042 31.5872 157.861 31.316 157.856 30.9815C157.852 30.647 158.024 30.3668 158.241 30.3622C158.458 30.3577 158.652 30.6334 158.652 30.9679Z" fill="#006800"/>
<path d="M154.864 30.9363C154.864 31.2708 154.693 31.5465 154.476 31.551C154.259 31.5555 154.073 31.2843 154.064 30.9498C154.055 30.6154 154.236 30.3351 154.453 30.3351C154.67 30.3351 154.855 30.5973 154.864 30.9363Z" fill="#006800"/>
<path d="M154.552 30.3487L153.739 30.1317C153.739 30.1317 154.164 30.7555 154.552 30.3487Z" fill="#006800"/>
<path d="M156.184 31.2436C155.9 32.0173 155.509 32.7475 155.022 33.4132C155.196 33.5329 155.393 33.6132 155.601 33.6483C155.809 33.6834 156.022 33.6726 156.225 33.6166L156.184 31.2436Z" fill="#A02724"/>
<path d="M158.245 34.724C158.081 34.7533 157.915 34.7685 157.748 34.7692C157.735 34.7698 157.722 34.7678 157.71 34.7634C157.698 34.7589 157.687 34.752 157.678 34.7431C157.669 34.7342 157.661 34.7235 157.656 34.7117C157.651 34.6999 157.649 34.6872 157.649 34.6743C157.649 34.6487 157.658 34.6241 157.676 34.6056C157.694 34.587 157.718 34.576 157.743 34.5749C158.162 34.5768 158.576 34.4801 158.951 34.2924C159.325 34.1047 159.65 33.8314 159.9 33.4946C159.915 33.4762 159.936 33.464 159.96 33.4602C159.984 33.4564 160.008 33.4613 160.028 33.474C160.049 33.4866 160.064 33.5062 160.071 33.5291C160.078 33.552 160.076 33.5766 160.067 33.5986C159.853 33.8974 159.582 34.1508 159.269 34.344C158.956 34.5372 158.608 34.6664 158.245 34.724Z" fill="#006800"/>
<path d="M166.811 33.2777C166.647 33.6385 166.414 33.9635 166.125 34.2342C165.835 34.5049 165.496 34.7159 165.125 34.8551C164.13 35.2213 163.547 34.3534 163.769 33.3681C163.954 32.4641 164.673 31.2256 165.726 31.2843C165.95 31.3026 166.167 31.3764 166.355 31.4992C166.544 31.622 166.7 31.7899 166.807 31.9877C166.915 32.1855 166.972 32.407 166.972 32.6322C166.973 32.8574 166.917 33.0793 166.811 33.2777Z" fill="#B55B52"/>
<path d="M165.066 40.3695C164.481 40.3695 163.91 40.1961 163.424 39.8713C162.937 39.5465 162.559 39.0848 162.335 38.5447C162.111 38.0045 162.053 37.4102 162.167 36.8367C162.281 36.2633 162.562 35.7366 162.976 35.3232C163.389 34.9098 163.916 34.6282 164.489 34.5142C165.063 34.4001 165.657 34.4586 166.197 34.6824C166.737 34.9061 167.199 35.285 167.524 35.7711C167.849 36.2573 168.022 36.8288 168.022 37.4134C168.021 38.1971 167.709 38.9483 167.155 39.5024C166.601 40.0565 165.85 40.3683 165.066 40.3695ZM165.066 34.6743C164.524 34.6734 163.994 34.8333 163.543 35.1337C163.092 35.4342 162.74 35.8617 162.532 36.3621C162.324 36.8625 162.269 37.4134 162.374 37.945C162.48 38.4767 162.74 38.9652 163.123 39.3487C163.506 39.7322 163.994 39.9935 164.525 40.0996C165.057 40.2056 165.608 40.1517 166.109 39.9445C166.609 39.7373 167.037 39.3862 167.339 38.9357C167.64 38.4851 167.8 37.9554 167.8 37.4134C167.799 36.6881 167.511 35.9928 166.998 35.4795C166.486 34.9662 165.791 34.6767 165.066 34.6743Z" fill="#5FC537"/>
<path d="M160.153 29.1509C160.111 29.1576 160.069 29.1511 160.032 29.1324C159.995 29.1138 159.964 29.0839 159.945 29.0469C159.52 28.2378 158.354 28.0796 158.34 28.0796C158.291 28.0696 158.247 28.041 158.217 27.9998C158.188 27.9585 158.176 27.9077 158.183 27.8576C158.19 27.8075 158.215 27.7619 158.255 27.7301C158.294 27.6983 158.344 27.6827 158.394 27.6864C158.449 27.6864 159.773 27.8762 160.293 28.8616C160.305 28.8847 160.313 28.9101 160.316 28.9363C160.319 28.9625 160.316 28.989 160.309 29.0142C160.301 29.0394 160.289 29.0629 160.272 29.0833C160.255 29.1036 160.235 29.1205 160.211 29.1328L160.153 29.1509Z" fill="#006800"/>
<path d="M153.68 28.8254C153.646 28.8322 153.611 28.83 153.579 28.8188C153.546 28.8077 153.517 28.7882 153.495 28.7622C153.477 28.7425 153.464 28.7196 153.455 28.6947C153.447 28.6698 153.444 28.6434 153.446 28.6172C153.448 28.591 153.456 28.5655 153.468 28.5423C153.48 28.519 153.497 28.4985 153.517 28.4819C153.751 28.2729 154.031 28.1229 154.335 28.0442C154.638 27.9656 154.956 27.9607 155.262 28.0299C155.312 28.0456 155.355 28.0803 155.38 28.1267C155.405 28.1732 155.412 28.2276 155.398 28.2785C155.39 28.3033 155.378 28.3263 155.362 28.3464C155.346 28.3664 155.326 28.383 155.303 28.3952C155.28 28.4074 155.255 28.4149 155.23 28.4174C155.204 28.4199 155.178 28.4172 155.153 28.4096C154.91 28.3574 154.658 28.3642 154.419 28.4295C154.179 28.4947 153.958 28.6166 153.775 28.7848C153.747 28.8058 153.714 28.8197 153.68 28.8254Z" fill="#006800"/>
<path d="M174.59 48.6095C175.349 50.7836 176.018 52.9532 176.624 55.1725C176.931 56.2799 177.225 57.3964 177.473 58.5399C177.595 59.114 177.717 59.6925 177.821 60.2937C177.935 60.9349 178.011 61.5825 178.047 62.2328V62.5175V62.852C178.047 63.0509 178.02 63.1729 178.002 63.3402C177.975 63.652 177.934 63.9368 177.894 64.2442C177.812 64.8272 177.717 65.3968 177.622 65.9618C177.433 67.0963 177.207 68.2218 176.981 69.3292C176.529 71.5575 175.991 73.7678 175.385 75.969L173.301 75.6255C173.423 73.3655 173.595 71.1055 173.776 68.8455L174.047 65.4962C174.088 64.9402 174.124 64.3888 174.156 63.8509C174.156 63.5797 174.187 63.3085 174.192 63.0554C174.192 62.9379 174.192 62.7797 174.192 62.6983V62.6079V62.4723C174.126 61.9978 174.035 61.5271 173.921 61.0621C173.803 60.5513 173.667 60.0315 173.523 59.5072C173.229 58.4586 172.917 57.3964 172.596 56.3432L170.567 49.979L174.59 48.6095Z" fill="#B55B52"/>
<path d="M169.627 43.6058C175.177 44.2929 176.275 51.0729 177.066 52.7769L171.62 57.3466C171.62 57.3466 168.171 51.5475 167.669 49.2965C167.15 46.9506 167.62 43.3572 169.627 43.6058Z" fill="#5FC537"/>
<path opacity="0.7" d="M169.627 43.6058C175.177 44.2929 176.275 51.0729 177.066 52.7769L171.62 57.3466C171.62 57.3466 168.171 51.5475 167.669 49.2965C167.15 46.9506 167.62 43.3572 169.627 43.6058Z" fill="white"/>
<path d="M154.295 160.809C153.946 160.844 153.597 160.752 153.309 160.552C153.247 160.489 153.203 160.412 153.18 160.327C153.157 160.243 153.156 160.153 153.178 160.068C153.188 160.012 153.21 159.959 153.244 159.914C153.278 159.868 153.322 159.831 153.373 159.806C153.911 159.526 155.488 160.376 155.664 160.475C155.682 160.484 155.695 160.499 155.704 160.517C155.712 160.535 155.714 160.555 155.709 160.574C155.704 160.596 155.692 160.615 155.676 160.63C155.66 160.645 155.64 160.655 155.619 160.66C155.183 160.749 154.74 160.799 154.295 160.809ZM153.639 159.946C153.574 159.942 153.509 159.955 153.449 159.982C153.429 159.992 153.412 160.007 153.398 160.025C153.385 160.043 153.376 160.064 153.373 160.086C153.358 160.142 153.358 160.2 153.373 160.255C153.387 160.31 153.415 160.361 153.454 160.403C153.685 160.633 154.358 160.669 155.307 160.516C154.789 160.23 154.224 160.038 153.639 159.951V159.946Z" fill="#5FC537"/>
<path d="M155.601 160.665H155.56C155.086 160.439 154.204 159.539 154.322 159.069C154.349 158.956 154.444 158.816 154.72 158.789C154.815 158.777 154.912 158.787 155.003 158.816C155.094 158.846 155.178 158.895 155.248 158.961C155.728 159.413 155.7 160.52 155.7 160.565C155.701 160.583 155.696 160.601 155.688 160.617C155.679 160.633 155.666 160.646 155.651 160.656C155.635 160.663 155.618 160.667 155.601 160.665ZM154.778 158.974H154.72C154.539 158.974 154.516 159.065 154.512 159.087C154.435 159.372 155.031 160.077 155.506 160.385C155.519 159.924 155.379 159.473 155.108 159.101C155.065 159.059 155.013 159.026 154.956 159.004C154.9 158.982 154.839 158.972 154.778 158.974Z" fill="#5FC537"/>
<path d="M185.772 158.992L181.695 159.869L178.3 150.725L182.377 149.848L185.772 158.992Z" fill="#B55B52"/>
<path d="M181.442 159.453L186.021 158.464C186.1 158.445 186.183 158.456 186.254 158.494C186.326 158.533 186.381 158.596 186.409 158.671L187.765 162.174C187.796 162.263 187.808 162.357 187.8 162.451C187.791 162.544 187.763 162.635 187.717 162.717C187.67 162.798 187.607 162.869 187.532 162.925C187.456 162.98 187.369 163.019 187.277 163.038C185.673 163.354 184.886 163.427 182.87 163.86C181.632 164.127 179.439 164.968 177.695 164.846C175.95 164.724 175.955 162.988 176.691 162.884C179.991 162.41 179.955 160.986 180.823 159.851C180.977 159.651 181.196 159.511 181.442 159.453Z" fill="#006800"/>
<path d="M180.945 160.285C180.601 160.39 180.232 160.378 179.896 160.249C179.818 160.205 179.752 160.143 179.703 160.069C179.655 159.994 179.625 159.908 179.616 159.82C179.605 159.766 179.609 159.71 179.628 159.659C179.646 159.607 179.678 159.561 179.72 159.526C180.172 159.146 181.98 159.621 182.174 159.679C182.195 159.683 182.213 159.694 182.227 159.709C182.241 159.725 182.249 159.745 182.251 159.765C182.252 159.786 182.247 159.806 182.237 159.824C182.226 159.842 182.211 159.856 182.192 159.865C181.79 160.043 181.373 160.183 180.945 160.285ZM180.041 159.603C179.979 159.613 179.92 159.638 179.869 159.675C179.853 159.689 179.84 159.708 179.833 159.728C179.826 159.749 179.824 159.771 179.828 159.792C179.833 159.851 179.852 159.908 179.883 159.957C179.915 160.007 179.958 160.048 180.009 160.077C180.307 160.244 180.99 160.14 181.858 159.797C181.262 159.625 180.641 159.56 180.023 159.603H180.041Z" fill="#5FC537"/>
<path d="M182.156 159.869C181.618 159.756 180.457 159.087 180.425 158.608C180.425 158.495 180.466 158.346 180.728 158.26C180.821 158.229 180.92 158.217 181.018 158.226C181.116 158.234 181.211 158.263 181.297 158.31C181.907 158.626 182.255 159.697 182.269 159.743C182.274 159.759 182.274 159.776 182.27 159.793C182.266 159.81 182.258 159.825 182.246 159.838C182.236 159.851 182.222 159.862 182.206 159.867C182.19 159.873 182.173 159.874 182.156 159.869ZM180.8 158.432H180.741C180.569 158.491 180.574 158.563 180.574 158.586C180.574 158.87 181.401 159.422 181.966 159.612C181.821 159.159 181.54 158.761 181.162 158.473C181.058 158.422 180.94 158.408 180.827 158.432H180.8Z" fill="#5FC537"/>
<g opacity="0.2">
<path opacity="0.2" d="M178.3 150.73L180.05 155.444L184.127 154.563L182.377 149.848L178.3 150.73Z" fill="black"/>
</g>
<path d="M170.309 69.3924C174.377 75.847 173.234 99.586 173.875 112.26C177.69 123.501 184.421 153.514 184.421 153.514L178.911 154.703C178.911 154.703 166.756 124.916 164.234 112.192C161.45 98.1487 158.06 69.3924 158.06 69.3924H170.309Z" fill="#5FC537"/>
<path d="M184.832 153.632L178.368 155.028L177.69 153.012L184.904 151.191L184.832 153.632Z" fill="#006800"/>
<path d="M158.349 30.3803L157.536 30.1634C157.536 30.1634 157.96 30.7871 158.349 30.3803Z" fill="#006800"/>
<path d="M170.531 68.3935L171.01 69.8942C171.073 70.0117 170.937 70.1337 170.738 70.1428L153.318 70.658C153.169 70.658 153.038 70.5948 153.029 70.4953L152.83 68.9856C152.83 68.8817 152.943 68.7913 153.11 68.7822L170.25 68.276C170.303 68.2692 170.357 68.2764 170.406 68.2971C170.455 68.3177 170.498 68.351 170.531 68.3935Z" fill="#006800"/>
<path d="M168.284 70.3778H168.736C168.827 70.3778 168.894 70.3281 168.89 70.2693L168.614 68.3076C168.614 68.2489 168.524 68.2037 168.433 68.2082H167.981C167.891 68.2082 167.823 68.2579 167.832 68.3167L168.103 70.2784C168.112 70.3371 168.194 70.3823 168.284 70.3778Z" fill="#5FC537"/>
<path d="M154.616 70.7846H155.068C155.158 70.7846 155.226 70.7349 155.217 70.6761L154.946 68.7144C154.946 68.6557 154.855 68.6105 154.765 68.615H154.313C154.222 68.615 154.155 68.6647 154.159 68.7235L154.435 70.6852C154.444 70.7439 154.525 70.7891 154.616 70.7846Z" fill="#5FC537"/>
<path d="M161.45 70.5812H161.902C161.992 70.5812 162.06 70.5315 162.051 70.4727L161.78 68.511C161.78 68.4523 161.689 68.4071 161.599 68.4116H161.147C161.057 68.4116 160.989 68.4613 160.998 68.5201L161.269 70.4818C161.278 70.5405 161.364 70.5857 161.45 70.5812Z" fill="#5FC537"/>
<path d="M173.568 74.9294L170.517 78.2426L174.752 78.4279C174.752 78.4776 176.131 76.1679 175.267 74.6492L173.568 74.9294Z" fill="#B55B52"/>
<path d="M171.629 81.7094H172.858C173.129 81.7072 173.392 81.6181 173.608 81.4554C173.825 81.2927 173.983 81.0649 174.061 80.8054L174.761 78.4324L170.526 78.2471L170.354 80.3534C170.342 80.5277 170.367 80.7025 170.426 80.867C170.484 81.0314 170.576 81.182 170.696 81.3092C170.816 81.4365 170.96 81.5377 171.121 81.6066C171.281 81.6754 171.454 81.7104 171.629 81.7094Z" fill="#B55B52"/>
<path d="M63.4291 160.104L59.5374 160.046L59.7815 150.996L63.6732 151.055L63.4291 160.104Z" fill="#FFC3BD"/>
<path d="M59.4922 159.594L63.7456 159.661C63.821 159.66 63.8941 159.687 63.9503 159.737C64.0065 159.788 64.0416 159.857 64.0484 159.933L64.419 163.413C64.4253 163.501 64.4133 163.589 64.3838 163.672C64.3543 163.755 64.3079 163.831 64.2476 163.895C64.1873 163.959 64.1144 164.01 64.0334 164.044C63.9525 164.079 63.8652 164.096 63.7772 164.095C62.2449 164.046 60.0392 163.924 58.1091 163.892C55.8491 163.856 56.0751 163.951 53.4309 163.892C51.8308 163.869 51.5732 162.242 52.2602 162.084C55.3836 161.465 55.7 161.433 58.5204 159.847C58.8166 159.679 59.1517 159.591 59.4922 159.594Z" fill="#006800"/>
<path d="M58.5928 43.5607C57.6888 46.3902 56.6989 49.1835 55.6638 51.9633C55.1485 53.3555 54.6242 54.7431 54.0773 56.1262C53.5304 57.5094 52.9835 58.8925 52.4049 60.2756C52.2738 60.6056 52.0885 61.0033 51.9258 61.374C51.7631 61.7446 51.5823 62.1017 51.406 62.4542C51.2297 62.8068 51.0444 63.1548 50.8545 63.4938C50.6647 63.8328 50.4839 64.1764 50.2895 64.5063C49.5392 65.8623 48.7121 67.1098 47.8939 68.3754C46.2306 70.8931 44.4678 73.2932 42.5694 75.6346L40.1105 74.0254L44.0113 66.1426C45.2999 63.6303 46.4262 61.0381 47.3832 58.3817L50.1313 50.0152C51.0353 47.2219 52.0071 44.424 52.988 41.6577L58.5928 43.5607Z" fill="#FFC3BD"/>
<path d="M61.2098 41.7481C60.2561 44.885 56.961 52.7182 56.961 52.7182L49.4081 47.4478C49.4081 47.4478 50.737 42.3493 53.7247 39.9492C57.9645 36.5456 62.4393 37.7027 61.2098 41.7481Z" fill="#006800"/>
<path opacity="0.2" d="M56.717 44.2974C53.9372 44.9709 51.8308 47.7733 52.1698 49.3779L56.961 52.7182C56.961 52.7182 57.9871 48.7812 59.7996 46.1596C58.76 45.0974 57.5215 44.103 56.717 44.2974Z" fill="black"/>
<path d="M55.4966 51.4254C55.7678 51.2223 56.019 50.9937 56.2469 50.7429C56.2469 50.7429 50.6376 46.8331 49.2228 46.7924C48.9766 47.0905 48.8325 47.4596 48.8115 47.8456C48.8115 47.8456 53.7112 51.4842 55.4966 51.4254Z" fill="#5FC537"/>
<path d="M41.4891 72.692L37.733 75.1148L40.7388 78.3827C40.7388 78.3827 43.9028 76.9047 43.3378 74.0616L41.4891 72.692Z" fill="#FFC3BD"/>
<path d="M36.16 78.907L38.0132 79.8472C38.1652 79.9239 38.3358 79.9561 38.5054 79.9401C38.6749 79.9241 38.8364 79.8606 38.9714 79.7568L40.7568 78.4008L37.751 75.1328L35.8572 77.5736C35.7803 77.6781 35.7268 77.7979 35.7004 77.9249C35.6739 78.0519 35.6751 78.1831 35.7038 78.3096C35.7325 78.4361 35.7881 78.5549 35.8668 78.658C35.9456 78.7611 36.0455 78.846 36.16 78.907Z" fill="#FFC3BD"/>
<path opacity="0.2" d="M59.7815 150.996L59.655 155.661L63.5512 155.724L63.6778 151.06L59.7815 150.996Z" fill="black"/>
<path d="M77.3914 39.8136C73.7528 54.6346 75.1947 70.3642 74.9371 73.5463L54.0637 73.2073C52.7077 56.7726 54.0637 45.9834 54.9135 41.2102C55.0676 40.3647 55.4912 39.5917 56.121 39.0067C56.7507 38.4218 57.5528 38.0563 58.4074 37.9649L58.6651 37.9378C59.2346 37.879 59.8493 37.8293 60.4731 37.7931C60.8256 37.7705 61.1872 37.7615 61.5488 37.7524C64.5181 37.8037 67.482 38.024 70.4261 38.4124C70.9821 38.4802 71.5516 38.566 72.0985 38.6564C72.6454 38.7468 73.111 38.8327 73.5811 38.9276C75.7371 39.348 77.3914 39.8136 77.3914 39.8136Z" fill="#006800"/>
<path opacity="0.2" d="M73.1924 46.1687C72.8715 47.606 73.5495 54.1465 75.1089 55.7601C75.2309 53.6674 75.4207 51.4797 75.6965 49.2423L73.1924 46.1687Z" fill="black"/>
<path d="M69.9199 28.3734C69.26 31.1758 68.5096 36.3512 70.4352 38.3988C68.8306 39.8226 66.7197 41.6622 63.3433 41.3142C60.5906 41.034 60.6313 38.9005 61.5669 37.7389C64.7761 37.2191 64.7807 34.8551 64.3061 32.6042L69.9199 28.3734Z" fill="#FFC3BD"/>
<path opacity="0.2" d="M69.3639 31.5374L67.0497 30.5702L66.1864 31.221C66.2768 31.5374 66.0462 32.6855 66.1864 33.029C66.5841 33.9873 68.1797 34.489 69.2102 34.3263C69.1936 33.3942 69.245 32.4621 69.3639 31.5374Z" fill="black"/>
<path d="M67.8 16.2644C66.1773 17.4667 66.1728 17.6204 64.4733 17.2904C62.7738 16.9604 57.969 15.2067 59.2482 19.356C55.2073 19.5911 55.7768 23.8444 57.5848 26.24C59.3928 28.6356 61.2008 28.8661 61.4087 30.8323C61.6709 33.142 65.5807 33.5895 66.1276 32.2923L71.7098 27.5282C73.563 27.6412 71.7731 24.6218 72.6906 22.8862C72.833 22.6166 72.9097 22.3173 72.9144 22.0125C72.9191 21.7078 72.8517 21.4062 72.7178 21.1324C73.2385 20.8825 73.6808 20.4948 73.9969 20.0114C75.8637 17.2678 70.4352 14.3298 67.8 16.2644Z" fill="#006800"/>
<path d="M61.472 24.6761C61.9602 28.5136 62.0506 30.7826 64.1298 32.6177C67.2531 35.3749 71.8996 33.255 72.5686 29.3407C73.1698 25.8151 72.2703 20.1335 68.3921 18.8814C67.534 18.6038 66.6195 18.5485 65.7342 18.7207C64.8489 18.8929 64.0218 19.2869 63.3303 19.8659C62.6389 20.4449 62.1056 21.19 61.7806 22.0313C61.4556 22.8725 61.3494 23.7826 61.472 24.6761Z" fill="#FFC3BD"/>
<path d="M61.8562 20.1199C63.8767 19.6679 65.7299 22.0093 64.636 23.6365C63.5422 25.2637 65.8745 27.2886 63.4292 28.3373C61.7206 29.0695 60.8935 27.2932 60.0663 26.0773C58.7962 24.2196 59.7047 20.5945 61.8562 20.1199Z" fill="#006800"/>
<path d="M59.881 19.6272C62.3489 20.9561 62.9501 22.2488 66.6158 20.9832C68.7809 20.242 69.3278 21.946 72.1121 21.3448C72.65 18.0588 68.817 17.3311 66.8825 17.6927C64.9479 18.0543 59.881 19.6272 59.881 19.6272Z" fill="#006800"/>
<path d="M59.881 20.2872C59.8064 20.2828 59.7331 20.266 59.664 20.2374C57.0198 19.3334 57.056 17.3401 57.0605 17.2542C57.0698 17.0812 57.1455 16.9184 57.2718 16.7997C57.398 16.681 57.5652 16.6155 57.7385 16.6169C57.9112 16.6228 58.0746 16.6962 58.1938 16.8213C58.3129 16.9463 58.3783 17.1131 58.3758 17.2859C58.3758 17.3537 58.4165 18.4249 60.0844 18.9899C60.2317 19.0408 60.3562 19.1421 60.436 19.276C60.5157 19.4099 60.5455 19.5677 60.52 19.7214C60.4946 19.8752 60.4156 20.0149 60.297 20.116C60.1783 20.2171 60.0278 20.2729 59.872 20.2736L59.881 20.2872Z" fill="#006800"/>
<path d="M60.8483 28.4051C61.3131 29.1523 62.0271 29.7111 62.8642 29.9826C63.8676 30.2538 64.1072 29.1554 63.6055 28.0435C63.1535 27.0446 62.0913 25.6976 61.1873 25.9191C60.2833 26.1406 60.2064 27.4242 60.8483 28.4051Z" fill="#FFC3BD"/>
<path d="M66.1638 111.939C66.0056 92.3179 70.3493 73.474 70.3493 73.474L54.0773 73.2119C54.0773 73.2119 55.9486 101.552 56.5995 113.44C57.2775 125.779 58.2221 154.757 58.2221 154.757L64.8259 154.857C64.8259 154.857 67.0768 127.425 66.1638 111.939Z" fill="#5FC537"/>
<path opacity="0.2" d="M66.8101 84.2678C62.1726 90.6184 64.2563 102.56 66.1593 110.999C66.2334 101.692 67.0252 92.4044 68.5278 83.2191L66.8101 84.2678Z" fill="black"/>
<path d="M57.8108 154.879L65.6666 155.001L66.1095 152.456L57.3543 152.185L57.8108 154.879Z" fill="#006800"/>
<path d="M67.8271 25.6117C67.8271 25.9236 68.0305 26.1677 68.2339 26.1496C68.4373 26.1315 68.591 25.8694 68.5684 25.553C68.5458 25.2366 68.365 24.997 68.1616 25.0151C67.9582 25.0332 67.8 25.2953 67.8271 25.6117Z" fill="#006800"/>
<path d="M71.5154 25.345C71.538 25.6614 71.7188 25.901 71.9268 25.8874C72.1347 25.8739 72.2793 25.6027 72.2612 25.2908C72.2432 24.9789 72.0578 24.7348 71.8499 24.7484C71.642 24.762 71.4974 25.0332 71.5154 25.345Z" fill="#006800"/>
<path d="M70.4352 25.3948C70.8723 26.327 71.4367 27.194 72.1121 27.9712C71.5923 28.5271 70.6295 28.3599 70.6295 28.3599L70.4352 25.3948Z" fill="#ED847E"/>
<path d="M68.5458 29.2774C68.1936 29.2609 67.8485 29.1721 67.5321 29.0166C67.2156 28.8611 66.9345 28.6422 66.7062 28.3734C66.6959 28.3536 66.6929 28.3307 66.6978 28.3088C66.7027 28.287 66.7152 28.2675 66.7331 28.254C66.751 28.2405 66.773 28.2337 66.7954 28.2349C66.8178 28.2361 66.839 28.2451 66.8553 28.2604C67.1136 28.5529 67.4375 28.7799 67.8005 28.9229C68.1635 29.0659 68.5553 29.1208 68.9436 29.0831C68.9558 29.0818 68.9682 29.0831 68.9799 29.0868C68.9916 29.0905 69.0025 29.0966 69.0118 29.1046C69.0211 29.1126 69.0287 29.1225 69.0341 29.1336C69.0394 29.1446 69.0425 29.1567 69.043 29.169C69.0443 29.1934 69.0361 29.2174 69.0201 29.2359C69.0041 29.2545 68.9815 29.2661 68.9571 29.2684C68.8204 29.2805 68.683 29.2835 68.5458 29.2774Z" fill="#006800"/>
<path d="M66.9322 24.4004C66.9 24.4004 66.8685 24.391 66.8418 24.3732C66.8211 24.36 66.8033 24.3427 66.7895 24.3224C66.7757 24.3021 66.7662 24.2792 66.7615 24.2551C66.7569 24.231 66.7572 24.2062 66.7624 24.1822C66.7677 24.1582 66.7777 24.1356 66.792 24.1156C66.9469 23.8651 67.1594 23.6553 67.4118 23.5036C67.6641 23.3518 67.9491 23.2626 68.2429 23.2432C68.2921 23.2432 68.3392 23.2628 68.374 23.2975C68.4087 23.3323 68.4283 23.3794 68.4283 23.4286C68.4283 23.4777 68.4087 23.5248 68.374 23.5596C68.3392 23.5944 68.2921 23.6139 68.2429 23.6139C68.0101 23.6324 67.785 23.7059 67.5861 23.8285C67.3873 23.9511 67.2205 24.1192 67.0994 24.319C67.0812 24.3461 67.0561 24.3679 67.0267 24.3822C66.9973 24.3965 66.9647 24.4027 66.9322 24.4004Z" fill="#006800"/>
<path d="M72.3607 23.4647C72.3301 23.4653 72.2999 23.4586 72.2724 23.4452C72.2449 23.4319 72.221 23.4122 72.2025 23.3879C72.0726 23.1967 71.8982 23.04 71.6942 22.9313C71.4903 22.8227 71.2629 22.7653 71.0318 22.7641C71.0075 22.7653 70.9831 22.7617 70.9602 22.7535C70.9372 22.7453 70.9161 22.7327 70.8981 22.7163C70.88 22.6999 70.8654 22.6802 70.855 22.6581C70.8446 22.6361 70.8386 22.6122 70.8375 22.5878C70.835 22.5394 70.8516 22.4919 70.8837 22.4556C70.9158 22.4193 70.9609 22.397 71.0092 22.3935C71.3018 22.392 71.5904 22.4616 71.8503 22.5962C72.1101 22.7308 72.3333 22.9265 72.5008 23.1664C72.5159 23.1859 72.5269 23.2082 72.5333 23.232C72.5396 23.2558 72.5412 23.2807 72.5378 23.3051C72.5344 23.3295 72.5262 23.353 72.5137 23.3742C72.5011 23.3954 72.4845 23.4139 72.4647 23.4286C72.4336 23.4492 72.3978 23.4616 72.3607 23.4647Z" fill="#006800"/>
<path d="M58.7871 159.942C58.8025 159.936 58.8162 159.926 58.8265 159.914C58.8369 159.901 58.8436 159.886 58.8459 159.869C58.8489 159.85 58.8462 159.83 58.8381 159.813C58.8301 159.795 58.8171 159.78 58.8007 159.77C58.6244 159.679 57.0695 158.866 56.5904 159.114C56.5462 159.139 56.5087 159.174 56.4811 159.217C56.4535 159.259 56.4367 159.308 56.4322 159.359C56.4223 159.442 56.4323 159.526 56.4613 159.605C56.4904 159.683 56.5377 159.754 56.5994 159.811C57.0198 160.195 58.1408 160.059 58.7736 159.946L58.7871 159.942ZM56.7124 159.264C57.0062 159.164 57.8515 159.503 58.4662 159.806C57.6029 159.937 56.961 159.892 56.726 159.675C56.6849 159.638 56.6536 159.591 56.6347 159.539C56.6158 159.487 56.6099 159.431 56.6175 159.377C56.6169 159.356 56.6222 159.336 56.6326 159.318C56.643 159.301 56.6581 159.287 56.6763 159.277L56.7124 159.264Z" fill="#5FC537"/>
<path d="M58.7871 159.942H58.8097C58.8228 159.933 58.8333 159.92 58.8405 159.906C58.8476 159.892 58.851 159.876 58.8504 159.86C58.8504 159.815 58.7555 158.762 58.2673 158.346C58.1978 158.285 58.1167 158.239 58.029 158.21C57.9412 158.182 57.8486 158.171 57.7566 158.179C57.5035 158.201 57.4266 158.332 57.4085 158.432C57.3317 158.884 58.2492 159.734 58.7148 159.951C58.7393 159.955 58.7644 159.951 58.7871 159.942ZM57.6797 158.369C57.7113 158.365 57.7431 158.365 57.7747 158.369C57.8422 158.363 57.9102 158.37 57.9747 158.391C58.0392 158.412 58.0988 158.446 58.1498 158.491C58.4342 158.834 58.6062 159.257 58.6425 159.702C58.1679 159.408 57.5441 158.735 57.5893 158.473C57.5939 158.436 57.6029 158.396 57.6797 158.369Z" fill="#5FC537"/>
<path d="M91.2181 160.104L87.3083 160.046L84.8042 150.996L88.7185 151.055L91.2181 160.104Z" fill="#FFC3BD"/>
<path d="M87.0326 159.594L91.2995 159.661C91.3789 159.663 91.4556 159.691 91.5183 159.74C91.5809 159.788 91.6262 159.856 91.6475 159.933L92.6148 163.413C92.6404 163.494 92.6461 163.579 92.6315 163.662C92.6169 163.746 92.5824 163.824 92.5309 163.891C92.4794 163.958 92.4124 164.012 92.3358 164.047C92.2591 164.083 92.1749 164.099 92.0905 164.095C90.5492 164.046 90.0474 163.924 88.1129 163.892C85.8529 163.856 86.9106 163.951 84.2573 163.892C82.6527 163.869 82.1194 162.251 82.7793 162.084C84.8675 161.632 85.2924 160.769 86.1105 159.847C86.2389 159.744 86.3869 159.668 86.5454 159.625C86.704 159.581 86.8698 159.571 87.0326 159.594Z" fill="#006800"/>
<path opacity="0.2" d="M84.8042 150.996L86.0969 155.661L90.0112 155.724L88.7185 151.06L84.8042 150.996Z" fill="black"/>
<path d="M81.4368 112.215C79.222 94.6773 77.5677 77.4652 74.9371 73.5463L61.1465 73.3248C61.1465 73.3248 69.1243 101.801 71.8183 113.499C74.6116 125.644 84.3161 153.577 84.3161 153.577L90.6079 153.668C90.6079 153.668 85.5681 125.779 81.4368 112.215Z" fill="#5FC537"/>
<path d="M83.4482 154.879L91.2995 155.001L91.7424 152.456L82.9917 152.185L83.4482 154.879Z" fill="#006800"/>
<path d="M87.2767 159.905C87.2939 159.907 87.3113 159.904 87.3266 159.896C87.3419 159.888 87.3545 159.876 87.3626 159.86C87.3736 159.844 87.3796 159.825 87.3796 159.806C87.3796 159.787 87.3736 159.768 87.3626 159.752C87.2315 159.603 86.0518 158.301 85.5139 158.396C85.4633 158.402 85.4154 158.422 85.3749 158.453C85.3344 158.484 85.3029 158.525 85.2834 158.572C85.2434 158.646 85.2225 158.728 85.2225 158.812C85.2225 158.895 85.2434 158.978 85.2834 159.051C85.5455 159.557 86.6394 159.815 87.2767 159.924V159.905ZM85.5636 158.549C85.8755 158.549 86.5535 159.169 87.0236 159.661C86.1693 159.49 85.5817 159.209 85.4325 158.938C85.4068 158.889 85.3933 158.835 85.3933 158.78C85.3933 158.725 85.4068 158.671 85.4325 158.622C85.4392 158.602 85.4513 158.585 85.4673 158.573C85.4833 158.56 85.5026 158.552 85.5229 158.549H85.5636Z" fill="#5FC537"/>
<path d="M87.2767 159.905H87.3038C87.3193 159.9 87.3332 159.892 87.3443 159.88C87.3554 159.868 87.3632 159.853 87.3671 159.838C87.3671 159.797 87.6609 158.78 87.3671 158.219C87.3227 158.138 87.2621 158.067 87.189 158.01C87.1159 157.953 87.0319 157.912 86.9422 157.889C86.6981 157.822 86.5806 157.917 86.5309 158.007C86.3049 158.391 86.8744 159.512 87.236 159.878C87.2468 159.891 87.2609 159.9 87.2767 159.905ZM86.775 158.052H86.8744C86.9397 158.069 87.0008 158.1 87.0537 158.142C87.1066 158.184 87.1502 158.237 87.1818 158.296C87.3322 158.716 87.3496 159.172 87.2315 159.603C86.8834 159.151 86.5309 158.319 86.6665 158.084C86.6778 158.064 86.6954 158.048 86.7167 158.039C86.738 158.03 86.7617 158.028 86.784 158.034L86.775 158.052Z" fill="#5FC537"/>
<path d="M79.0458 44.0398L79.204 44.3968L79.3938 44.8036L79.7825 45.6353C80.0583 46.1913 80.3475 46.7427 80.6504 47.2851C81.2515 48.3835 81.8979 49.4547 82.5895 50.4853C83.2734 51.5177 84.0112 52.5135 84.7997 53.4685C85.1839 53.9521 85.6133 54.3725 86.0111 54.8561L86.6529 55.507L86.9739 55.837L87.0145 55.8776C87.0145 55.8776 87.0145 55.8776 86.9829 55.8776C86.9513 55.8776 86.8699 55.8776 86.8835 55.8776C86.9587 55.911 87.0423 55.9204 87.123 55.9048C87.542 55.8493 87.9494 55.7273 88.3299 55.5432C89.3821 55.0272 90.3787 54.4047 91.304 53.6854C93.3604 52.1068 95.3224 50.4089 97.18 48.6004L99.4762 50.4084C98.7213 51.5959 97.9019 52.7412 97.0218 53.8391C96.1371 54.9501 95.1862 56.0067 94.1742 57.0031C93.098 58.089 91.898 59.0448 90.5989 59.8507C89.8088 60.3348 88.949 60.6946 88.0496 60.9174C87.4678 61.0523 86.8683 61.095 86.2733 61.044C85.5664 60.9798 84.881 60.7672 84.2619 60.4202C84.1127 60.3253 83.9545 60.2304 83.8099 60.1264L83.5974 59.9682L83.4935 59.8869L83.4437 59.8417L83.0189 59.4801L82.1781 58.7569C81.6448 58.2461 81.0933 57.7489 80.6052 57.202C79.5923 56.145 78.653 55.0199 77.7937 53.8346C76.9321 52.6643 76.1441 51.4415 75.4343 50.1734C75.0817 49.5361 74.7473 48.8942 74.4263 48.2343C74.2681 47.9044 74.1054 47.5744 73.9743 47.2354L73.7529 46.7156L73.5269 46.137L79.0458 44.0398Z" fill="#FFC3BD"/>
<path d="M77.3914 39.8136C81.0074 40.9255 82.6663 48.9892 82.6663 48.9892L77.1609 53.8256C75.0289 51.6412 73.3621 49.0472 72.2612 46.2003C70.4035 41.2193 73.0296 38.4621 77.3914 39.8136Z" fill="#006800"/>
<path d="M82.933 49.1383C82.8323 48.8138 82.7021 48.4991 82.5442 48.1982C82.5442 48.1982 76.9756 52.1712 76.4648 53.4866C76.663 53.8187 76.9624 54.0785 77.3191 54.2278C77.3191 54.2278 82.3725 50.8288 82.933 49.1383Z" fill="#5FC537"/>
<path d="M96.5336 49.4592L98.6445 46.1235L101.777 49.6717C101.777 49.6717 99.5168 52.4605 97.8263 51.4797L96.5336 49.4592Z" fill="#FFC3BD"/>
<path d="M102.636 45.1878L103.54 46.6162C103.712 46.8909 103.781 47.2184 103.733 47.5394C103.685 47.8604 103.523 48.1535 103.277 48.3654L101.79 49.6717L98.658 46.1235L100.742 44.7675C100.893 44.6686 101.063 44.601 101.24 44.5686C101.418 44.5363 101.601 44.5398 101.777 44.5789C101.954 44.6181 102.12 44.6921 102.268 44.7967C102.415 44.9013 102.54 45.0343 102.636 45.1878Z" fill="#FFC3BD"/>
<path d="M148.468 54.7883C146.397 52.7145 143.936 51.0703 141.228 49.9502C138.519 48.8301 135.616 48.2562 132.685 48.2615H123.138V50.4039C120.823 51.5002 118.713 52.9863 116.901 54.7974C114.81 52.7015 112.321 51.0438 109.582 49.9215C106.842 48.7992 103.906 48.2349 100.945 48.2615H91.4034V50.4853C88.1953 52.035 85.4047 54.3302 83.265 57.179C81.1253 60.0278 79.6987 63.3474 79.1045 66.8603C78.5102 70.3733 78.7656 73.9774 79.8492 77.3715C80.9328 80.7655 82.8131 83.8509 85.3331 86.3696L107.255 108.292H107.151V117.937H114.076C115.885 117.937 117.62 117.219 118.899 115.939L148.468 86.3696C150.543 84.2964 152.189 81.8348 153.311 79.1253C154.434 76.4159 155.012 73.5118 155.012 70.579C155.012 67.6461 154.434 64.742 153.311 62.0326C152.189 59.3232 150.543 56.8615 148.468 54.7883Z" fill="#5FC537"/>
<path opacity="0.2" d="M148.468 54.7883C146.397 52.7145 143.936 51.0703 141.228 49.9502C138.519 48.8301 135.616 48.2562 132.685 48.2615H123.138V50.4039C120.823 51.5002 118.713 52.9863 116.901 54.7974C114.81 52.7015 112.321 51.0438 109.582 49.9215C106.842 48.7992 103.906 48.2349 100.945 48.2615H91.4034V50.4853C88.1953 52.035 85.4047 54.3302 83.265 57.179C81.1253 60.0278 79.6987 63.3474 79.1045 66.8603C78.5102 70.3733 78.7656 73.9774 79.8492 77.3715C80.9328 80.7655 82.8131 83.8509 85.3331 86.3696L107.255 108.292H107.151V117.937H114.076C115.885 117.937 117.62 117.219 118.899 115.939L148.468 86.3696C150.543 84.2964 152.189 81.8348 153.311 79.1253C154.434 76.4159 155.012 73.5118 155.012 70.579C155.012 67.6461 154.434 64.742 153.311 62.0326C152.189 59.3232 150.543 56.8615 148.468 54.7883Z" fill="black"/>
<path d="M138.719 54.7883C134.532 50.6028 128.855 48.2515 122.935 48.2515C117.015 48.2515 111.338 50.6028 107.151 54.7883C102.951 50.6662 97.2934 48.3692 91.4086 48.3969C85.5238 48.4246 79.888 50.7749 75.727 54.9364C71.5661 59.0979 69.2166 64.7341 69.1897 70.6189C69.1629 76.5037 71.4607 82.1611 75.5835 86.3605L107.151 117.928L138.719 86.3605C140.792 84.2875 142.436 81.8264 143.558 79.1179C144.68 76.4093 145.258 73.5062 145.258 70.5744C145.258 67.6427 144.68 64.7396 143.558 62.031C142.436 59.3224 140.792 56.8613 138.719 54.7883Z" fill="#5FC537"/>
<path d="M93.0262 105.402L92.7065 105.721L97.587 110.602L97.9066 110.282L93.0262 105.402Z" fill="#5FC537"/>
<path d="M99.8264 112.211L99.5068 112.53L101.731 114.755L102.051 114.435L99.8264 112.211Z" fill="#5FC537"/>
<path opacity="0.2" d="M138.719 54.7883C134.532 50.6028 128.855 48.2515 122.935 48.2515C117.015 48.2515 111.338 50.6028 107.151 54.7883C102.951 50.6662 97.2934 48.3692 91.4086 48.3969C85.5238 48.4246 79.888 50.7749 75.727 54.9364C71.5661 59.0979 69.2166 64.7341 69.1897 70.6189C69.1629 76.5037 71.4607 82.1611 75.5835 86.3605L107.151 117.928L138.719 86.3605C140.792 84.2875 142.436 81.8264 143.558 79.1179C144.68 76.4093 145.258 73.5062 145.258 70.5744C145.258 67.6427 144.68 64.7396 143.558 62.031C142.436 59.3224 140.792 56.8613 138.719 54.7883Z" fill="black"/>
<path d="M78.8379 83.1016C77.1928 81.4565 75.8878 79.5035 74.9975 77.3541C74.1072 75.2047 73.6489 72.9009 73.6489 70.5744C73.6489 68.2479 74.1072 65.9442 74.9975 63.7948C75.8878 61.6454 77.1928 59.6923 78.8379 58.0472C80.4829 56.4022 82.436 55.0972 84.5854 54.2069C86.7348 53.3166 89.0385 52.8583 91.365 52.8583C93.6915 52.8583 95.9953 53.3166 98.1447 54.2069C100.294 55.0972 102.247 56.4022 103.892 58.0472L107.151 61.3062L110.41 58.0472C112.055 56.4022 114.008 55.0972 116.158 54.2069C118.307 53.3166 120.611 52.8583 122.937 52.8583C125.264 52.8583 127.567 53.3166 129.717 54.2069C131.866 55.0972 133.819 56.4022 135.464 58.0472C137.11 59.6923 138.414 61.6454 139.305 63.7948C140.195 65.9442 140.653 68.2479 140.653 70.5744C140.653 72.9009 140.195 75.2047 139.305 77.3541C138.414 79.5035 137.11 81.4565 135.464 83.1016L107.151 111.415L78.8379 83.1016Z" fill="#5FC537"/>
<path d="M84.1443 67.5257H91.9277V69.5733H89.3152V75.8335H86.7523V69.5959H84.1443V67.5257Z" fill="white"/>
<path d="M93.112 67.5257H95.6748V70.4094H98.4727V67.5121H101.045V75.8334H98.4727V72.4841H95.6748V75.8334H93.112V67.5257Z" fill="white"/>
<path d="M107.82 74.4413H104.914L104.511 75.7973H101.894L105.009 67.5121H107.802L110.916 75.8334H108.236L107.82 74.4413ZM107.291 72.6333L106.387 69.6546L105.483 72.6333H107.291Z" fill="white"/>
<path d="M111.748 67.5257H114.139L117.258 72.109V67.5257H119.672V75.8335H117.258L114.157 71.2818V75.8335H111.748V67.5257Z" fill="white"/>
<path d="M121.385 67.5257H123.947V70.6581L126.628 67.5257H130.031L127.012 70.6535L130.176 75.8335H127.012L125.263 72.4254L123.943 73.813V75.8335H121.38L121.385 67.5257Z" fill="white"/>
<path d="M93.2386 81.4156H96.0817L97.7495 84.2135L99.422 81.4156H102.251L99.0287 86.2294V89.7008H96.4659V86.2294L93.2386 81.4156Z" fill="white"/>
<path d="M102.062 85.565C102.005 84.9888 102.077 84.4073 102.271 83.8621C102.466 83.3168 102.779 82.8214 103.188 82.4114C103.596 82.0014 104.091 81.6869 104.635 81.4905C105.18 81.2942 105.761 81.2207 106.338 81.2755C107.716 81.2755 108.783 81.6462 109.529 82.3874C109.916 82.8026 110.215 83.2925 110.407 83.8272C110.599 84.3619 110.68 84.9302 110.645 85.4972C110.676 86.3189 110.509 87.1361 110.157 87.8792C109.84 88.4915 109.347 88.9951 108.742 89.3256C108.032 89.693 107.24 89.8719 106.441 89.8454C105.643 89.8716 104.849 89.7171 104.118 89.3934C103.492 89.0816 102.974 88.5887 102.631 87.9787C102.228 87.2398 102.032 86.4061 102.062 85.565ZM104.62 85.565C104.559 86.2016 104.719 86.8398 105.072 87.373C105.237 87.5453 105.434 87.6824 105.653 87.7761C105.872 87.8698 106.108 87.9181 106.347 87.9181C106.585 87.9181 106.821 87.8698 107.04 87.7761C107.259 87.6824 107.457 87.5453 107.621 87.373C107.92 87.0159 108.073 86.3741 108.073 85.443C108.131 84.8378 107.97 84.232 107.621 83.7344C107.461 83.5555 107.263 83.4144 107.042 83.3214C106.821 83.2284 106.582 83.1857 106.342 83.1965C106.107 83.1874 105.873 83.2319 105.657 83.3266C105.442 83.4214 105.251 83.5639 105.099 83.7434C104.731 84.2793 104.562 84.9267 104.62 85.574V85.565Z" fill="white"/>
<path d="M117.416 81.4156H119.974V86.3515C119.978 86.8238 119.9 87.2932 119.744 87.7391C119.593 88.1681 119.348 88.5575 119.025 88.8782C118.737 89.179 118.387 89.4135 117.999 89.5652C117.418 89.7662 116.806 89.8611 116.191 89.8454C115.75 89.8417 115.309 89.813 114.871 89.7596C114.455 89.721 114.049 89.606 113.673 89.4206C113.338 89.2415 113.04 88.999 112.797 88.7064C112.548 88.4311 112.362 88.1059 112.25 87.7527C112.104 87.2994 112.025 86.8275 112.015 86.3515V81.4156H114.568V86.469C114.558 86.6621 114.585 86.8553 114.65 87.0376C114.714 87.2199 114.814 87.3877 114.944 87.5312C115.235 87.7746 115.603 87.908 115.983 87.908C116.363 87.908 116.731 87.7746 117.023 87.5312C117.154 87.388 117.255 87.2196 117.32 87.0363C117.384 86.8529 117.411 86.6584 117.398 86.4645L117.416 81.4156Z" fill="white"/>
</svg>
